inDegrees=yes
name=ik_XSDot_20240315_154947_orientations
DataType=double
version=3
OpenSimVersion=4.5-2024-01-10-34fd6af
endheader
time	pelvis_tilt	pelvis_list	pelvis_rotation	pelvis_tx	pelvis_ty	pelvis_tz	hip_flexion_r	hip_adduction_r	hip_rotation_r	knee_angle_r	ankle_angle_r	subtalar_angle_r	mtp_angle_r	hip_flexion_l	hip_adduction_l	hip_rotation_l	knee_angle_l	ankle_angle_l	subtalar_angle_l	mtp_angle_l	lumbar_extension	lumbar_bending	lumbar_rotation
0	44.9892704821622	0.006883183119156804	47.80917760837634	0	0.95	0	0.00252136079968486	-0.009785038763114384	-0.00751779608368305	0.006344429107142272	0	0	0	0.002521360796111905	0.009785038761053974	0.007517796084286952	0.006344429104929121	0	0	0	0	0	0
0.01	44.98538995981827	-0.00838434512627349	47.79905961899307	0	0.95	0	0.05918554451878451	-0.01877252109670887	-0.0327662106291127	-0.01768698174974293	0	0	0	-0.02160852061750575	0.02033710101805136	-0.01651329133369633	0.1194713924100368	0	0	0	0	0	0
0.02	45.00377591368943	0.01459323938372062	47.78313963163677	0	0.95	0	0.0377761358324154	-0.00957256038883055	-0.07326072049388149	-0.01795688712261383	0	0	0	0.03185506162310169	0.0327291452321207	-0.03817171903531691	0.1330423059964351	0	0	0	0	0	0
0.03	44.98452345416789	0.02635245110533995	47.77987845242594	0	0.95	0	0.001852489394067989	0.01139498045534269	-0.1312516881120513	0.05807470934121676	0	0	0	0.07467623758978481	0.05101679809265496	-0.09916820078015584	0.1234718467167795	0	0	0	0	0	0
0.04	44.96542821079665	0.03181586435441031	47.79363057056825	0	0.95	0	-0.02319273447217599	0.02577755889644355	-0.1522212775750214	0.05394760951145563	0	0	0	0.09291929690095184	0.05073679688124268	-0.1356624613068682	0.1183221401760012	0	0	0	0	0	0
0.05	44.97381522584057	0.04289005019946723	47.79845722624255	0	0.95	0	-0.08240614422593194	0.04403051521225184	-0.185991022923378	0.08636122032432403	0	0	0	0.1690670583697267	0.04046241625190976	-0.188889974853013	-0.03001424886617081	0	0	0	0	0	0
0.06	44.96324679235168	0.04786142802551669	47.80375969815628	0	0.95	0	-0.075831883442514	0.04924396827530901	-0.1936856254470041	0.09742743349608525	0	0	0	0.1603104623705915	0.02905087408237502	-0.1994373329089162	-0.04551458814013704	0	0	0	0	0	0
0.07000000000000001	44.9767383513773	0.02088683298952977	47.81130903234025	0	0.95	0	-0.1340571743462692	0.08194103408877622	-0.2026869985541825	0.2123737288152664	0	0	0	0.227413543490088	-0.01317593198389002	-0.1959692755020763	-0.09371254830081517	0	0	0	0	0	0
0.08	44.97595691142261	0.02286539061208872	47.81551906499456	0	0.95	0	-0.1359300040540795	0.08212056549486262	-0.1986452476798426	0.2145582644357868	0	0	0	0.2289529857621946	-0.01924914831611449	-0.1956249486623031	-0.09932227313640167	0	0	0	0	0	0
0.09	44.99222143656372	0.0143590698018604	47.81356304942695	0	0.95	0	-0.1540110694436865	0.08069684033217352	-0.1844386245540585	0.2166576624337402	0	0	0	0.2580599283208861	-0.05468651818069558	-0.1807471605288221	-0.1359482041945902	0	0	0	0	0	0
0.09999999999999999	45.00789094489914	0.01847938711461028	47.81177891740616	0	0.95	0	-0.1435353555685112	0.08527967264739454	-0.1879366379571097	0.2217479152770311	0	0	0	0.2673715319017589	-0.0548270219579285	-0.1811531427392889	-0.1397944331348747	0	0	0	0	0	0
0.11	45.01845362347251	0.0140961513569536	47.81121828009418	0	0.95	0	-0.1443648494590243	0.08494397071173961	-0.1891204986722078	0.2241429580499344	0	0	0	0.2788658344690241	-0.05447758513222676	-0.1784054465649965	-0.1399808401531978	0	0	0	0	0	0
0.12	45.02282536584765	-0.04730320496780387	47.84170301545911	0	0.95	0	-0.1464517555186793	0.1320020194166409	-0.218997632828281	0.2947791580390914	0	0	0	0.3999614549748256	-0.1020332333045629	-0.1356779219858829	-0.2248148325298616	0	0	0	0	0	0
0.13	45.03388880384564	-0.05429887978189935	47.84204238091652	0	0.95	0	-0.1442449590898034	0.1256917885921774	-0.2181278731432104	0.2969427103088184	0	0	0	0.4004259318644947	-0.09716500353192621	-0.1311446403622223	-0.223360369318975	0	0	0	0	0	0
0.14	45.04035344030267	-0.05890128172085662	47.84360538207964	0	0.95	0	-0.1410820545518696	0.1210814899843929	-0.2184264734457005	0.3013984617690818	0	0	0	0.398794210759049	-0.09389587936224941	-0.1248648802187956	-0.2261569944504874	0	0	0	0	0	0
0.15	45.04812962654355	-0.06241867925239757	47.85543894527844	0	0.95	0	-0.1403194419939043	0.1108540746036401	-0.2232355782271232	0.3114467309509587	0	0	0	0.3988659209400615	-0.09162256061443054	-0.1025896341914983	-0.2357349366897612	0	0	0	0	0	0
0.16	45.05635270829053	-0.06294439191184965	47.88047570524397	0	0.95	0	-0.1436037913574823	0.1021737600898343	-0.2423909388139734	0.3282075550496764	0	0	0	0.3966665477301449	-0.08517733096389074	-0.06992738226414237	-0.2530425345399466	0	0	0	0	0	0
0.17	45.06768605173694	-0.05703867114597503	47.89284957541897	0	0.95	0	-0.1436921765134285	0.09688424499718223	-0.2557761215618208	0.3305709494121186	0	0	0	0.4045536271649219	-0.07954003021352934	-0.0531322833177953	-0.256355586472834	0	0	0	0	0	0
0.18	45.05650313289972	-0.03741604251552075	47.99924021371208	0	0.95	0	-0.1378412126919791	0.06819950178337073	-0.3690984416015858	0.3353606815908401	0	0	0	0.4022774977295627	-0.05101490376296989	0.08323575939013576	-0.2896616232665097	0	0	0	0	0	0
0.19	45.06911898217471	-0.04186535228444421	47.9974330226395	0	0.95	0	-0.1412525986500227	0.06254634241432518	-0.3736086709188146	0.3338192291119108	0	0	0	0.410594261052685	-0.04392980625920102	0.08354043342304365	-0.2844338359129555	0	0	0	0	0	0
0.2	45.06911898217471	-0.04186535228444421	47.9974330226395	0	0.95	0	-0.1412525986500227	0.06254634241432518	-0.3736086709188146	0.3338192291119108	0	0	0	0.410594261052685	-0.04392980625920102	0.08354043342304365	-0.2844338359129555	0	0	0	0	0	0
0.21	45.07562467825778	-0.05340212406219674	47.99523113285726	0	0.95	0	-0.147398430558536	0.05563947868590878	-0.3775123591779453	0.3360820349225512	0	0	0	0.41337129976821	-0.03302282533781918	0.09276937022722669	-0.2858397691743572	0	0	0	0	0	0
0.2200000000000001	45.04590412261374	-0.03138314844139178	48.06654714960018	0	0.95	0	-0.1839849477164473	0.00722963461390526	-0.4563014263718333	0.3936408996171203	0	0	0	0.4443625519028808	0.0239415116453612	0.1867624335347074	-0.2869391429504212	0	0	0	0	0	0
0.2300000000000001	45.06113763294677	-0.03419740438409776	48.06545112692969	0	0.95	0	-0.1758455568015709	0.000437489000157905	-0.4579243565695098	0.3948088831405246	0	0	0	0.4431284187831653	0.03018887992084338	0.1910433504481315	-0.2886477190258998	0	0	0	0	0	0
0.2400000000000001	45.06113763294677	-0.03419740438409776	48.06545112692969	0	0.95	0	-0.1758455568015709	0.000437489000157905	-0.4579243565695098	0.3948088831405246	0	0	0	0.4431284187831653	0.03018887992084338	0.1910433504481315	-0.2886477190258998	0	0	0	0	0	0
0.2500000000000001	45.06770451237759	-0.04340722862707019	48.0740986461415	0	0.95	0	-0.165779568172173	-0.009818810747260829	-0.4622401401240778	0.3996568462887241	0	0	0	0.4312010070866057	0.03977855671824251	0.2127783362593128	-0.298017866880333	0	0	0	0	0	0
0.2600000000000001	45.04365288305296	-0.02851310220175052	48.16689317739309	0	0.95	0	-0.1521985651775022	-0.04729725843165397	-0.5645980271197522	0.397273297468373	0	0	0	0.435621633210232	0.07733415157147218	0.3291764043019894	-0.3224518597602676	0	0	0	0	0	0
